<?xml version="1.0" encoding="UTF-8"?>
<svg version="1.1" xmlns="http://www.w3.org/2000/svg" width="276" height="113">
<path d="M0 0 C91.08 0 182.16 0 276 0 C276 37.29 276 74.58 276 113 C184.92 113 93.84 113 0 113 C0 75.71 0 38.42 0 0 Z " fill="#FBFBFC" transform="translate(0,0)"/>
<path d="M0 0 C2.64 0 5.28 0 8 0 C8 0.66 8 1.32 8 2 C9.258125 2.0825 10.51625 2.165 11.8125 2.25 C16.68057406 2.77295266 20.88989064 4.26030739 25.421875 6.0625 C27.94218322 6.97897572 30.3613483 7.54440546 33 8 C33.33 6.02 33.66 4.04 34 2 C39.61 2 45.22 2 51 2 C50.89558594 3.29035156 50.79117188 4.58070312 50.68359375 5.91015625 C49.7933366 15.15794022 49.7933366 15.15794022 52.7578125 23.5390625 C55.09404389 25.2100619 57.50495126 26.58109049 60 28 C64.91540558 32.77722149 69.0234974 38.43289637 73 44 C73.55171875 44.76828125 74.1034375 45.5365625 74.671875 46.328125 C75.21328125 47.10671875 75.7546875 47.8853125 76.3125 48.6875 C77.04919922 49.74517578 77.04919922 49.74517578 77.80078125 50.82421875 C79.1208364 53.21923737 79.59927322 55.30805891 80 58 C84.43489854 53.70639026 88.20300289 49.07617952 92.01171875 44.23046875 C92.66785156 43.49441406 93.32398437 42.75835937 94 42 C94.66 42 95.32 42 96 42 C96 41.34 96 40.68 96 40 C96.66 40 97.32 40 98 40 C98 39.34 98 38.68 98 38 C99.65 37.34 101.3 36.68 103 36 C103 35.34 103 34.68 103 34 C109.625 30 109.625 30 113 30 C113.33663062 33.70293685 113.47736015 35.39534381 111.125 38.375 C109 40 109 40 107 40 C107 40.66 107 41.32 107 42 C105.86561855 43.16875665 104.72441514 44.33146358 103.5546875 45.46484375 C91.71202649 57.15872761 84.78313993 71.59584585 82 88 C81.34 88 80.68 88 80 88 C79.86464844 87.27296875 79.72929688 86.5459375 79.58984375 85.796875 C76.22775055 70.09368521 67.15159475 58.31206891 53.9375 49.375 C51.98320054 48.15223759 50.06122873 47.03061436 48 46 C48 45.34 48 44.68 48 44 C47.01 44 46.02 44 45 44 C45 43.34 45 42.68 45 42 C43.68 42 42.36 42 41 42 C41 41.34 41 40.68 41 40 C40.0925 39.855625 39.185 39.71125 38.25 39.5625 C35.78523044 39.13590527 33.41152893 38.64925779 31 38 C31 37.34 31 36.68 31 36 C30.14535156 35.86464844 29.29070313 35.72929688 28.41015625 35.58984375 C13.80580395 33.06377594 13.80580395 33.06377594 10.22265625 28.96875 C8.89554272 26.35692274 7.92983203 23.77838255 7 21 C6.10657327 18.72821875 5.21068245 16.45740521 4.3125 14.1875 C3.54131045 12.12513317 2.77044996 10.06264324 2 8 C1.62230469 7.10925781 1.24460937 6.21851563 0.85546875 5.30078125 C0 3 0 3 0 0 Z " fill="#0F5B7A" transform="translate(5,4)"/>
<path d="M0 0 C4.95 0 9.9 0 15 0 C15 33.66 15 67.32 15 102 C59.55 102 104.1 102 150 102 C150 102.33 150 102.66 150 103 C100.5 103 51 103 0 103 C0 69.01 0 35.02 0 0 Z " fill="#142344" transform="translate(121,7)"/>
<path d="M0 0 C3.465 1.485 3.465 1.485 7 3 C7.79402222 3.30729538 8.58804443 3.61459076 9.40612793 3.93119812 C11.75604641 5.05307403 13.27250757 6.03519314 15 8 C16.12243453 12.32144267 15.93135284 16.51832555 15.78125 20.95703125 C15.76993042 22.21513107 15.75861084 23.4732309 15.74694824 24.76945496 C15.70978511 28.10364237 15.63803541 31.43340011 15.54931641 34.76635742 C15.46724944 38.17132404 15.43089334 41.57674985 15.390625 44.98242188 C15.30244842 51.65632533 15.16438484 58.32755619 15 65 C10.05 65 5.1 65 0 65 C0 43.55 0 22.1 0 0 Z " fill="#122142" transform="translate(40,45)"/>
<path d="M0 0 C5.61 0 11.22 0 17 0 C17 6.27 17 12.54 17 19 C19.64 18.34 22.28 17.68 25 17 C27.72061968 16.79007564 30.263957 16.90228418 33 17 C31.68 17.33 30.36 17.66 29 18 C29 18.66 29 19.32 29 20 C24.05 20.495 24.05 20.495 19 21 C19 21.66 19 22.32 19 23 C18.34 23 17.68 23 17 23 C17 49.07 17 75.14 17 102 C61.55 102 106.1 102 152 102 C152 102.99 152 103.98 152 105 C101.84 105 51.68 105 0 105 C0 70.35 0 35.7 0 0 Z M1 1 C1 34.99 1 68.98 1 104 C50.5 104 100 104 151 104 C151 103.67 151 103.34 151 103 C106.45 103 61.9 103 16 103 C16 69.34 16 35.68 16 1 C11.05 1 6.1 1 1 1 Z " fill="#8B93A5" transform="translate(120,6)"/>
<path d="M0 0 C2.64 0 5.28 0 8 0 C8 0.66 8 1.32 8 2 C9.258125 2.0825 10.51625 2.165 11.8125 2.25 C16.68057406 2.77295266 20.88989064 4.26030739 25.421875 6.0625 C27.94218322 6.97897572 30.3613483 7.54440546 33 8 C33.33 6.02 33.66 4.04 34 2 C39.61 2 45.22 2 51 2 C51 7.61 51 13.22 51 19 C47.82158983 19 46.15684492 18.39266707 43.25 17.1875 C42.37085938 16.82527344 41.49171875 16.46304687 40.5859375 16.08984375 C37.38422598 14.74048195 34.18632836 13.38536016 31 12 C31 11.34 31 10.68 31 10 C30.50113281 9.88785156 30.00226562 9.77570312 29.48828125 9.66015625 C25.30408678 8.55006384 21.20461714 7.12502443 17.10742188 5.72851562 C12.55154913 4.25011983 8.78912483 3.75584854 4 4 C4.268125 4.62648438 4.53625 5.25296875 4.8125 5.8984375 C5.78524211 8.43908631 6.59769269 10.93635727 7.375 13.5390625 C9.83405527 22.82264007 9.83405527 22.82264007 15.68359375 29.91015625 C18.21049899 30.62342454 20.37943119 31.01581832 23 31 C22.67 31.66 22.34 32.32 22 33 C18.42413181 32.84724447 15.31647974 32.38271694 12 31 C9.48236493 28.00954078 8.32085009 24.64896715 7 21 C6.33871094 19.329375 6.33871094 19.329375 5.6640625 17.625 C4.40736985 14.42878747 3.20169481 11.21716891 2 8 C1.62230469 7.10925781 1.24460937 6.21851563 0.85546875 5.30078125 C0 3 0 3 0 0 Z " fill="#289CB4" transform="translate(5,4)"/>
<path d="M0 0 C1.90845703 0.04060547 1.90845703 0.04060547 3.85546875 0.08203125 C5.31919922 0.13423828 5.31919922 0.13423828 6.8125 0.1875 C6.8125 0.8475 6.8125 1.5075 6.8125 2.1875 C7.410625 1.8575 8.00875 1.5275 8.625 1.1875 C10.8125 0.1875 10.8125 0.1875 13.8125 0.1875 C13.8125 0.8475 13.8125 1.5075 13.8125 2.1875 C12.8225 2.1875 11.8325 2.1875 10.8125 2.1875 C10.8125 3.1775 10.8125 4.1675 10.8125 5.1875 C12.1325 5.5175 13.4525 5.8475 14.8125 6.1875 C14.9375 8.5625 14.9375 8.5625 14.8125 11.1875 C12.8125 13.1875 12.8125 13.1875 10.01953125 13.41796875 C-5.50042517 13.22151361 -5.50042517 13.22151361 -9.125 11 C-10.7214636 8.27662093 -10.57380872 6.27796979 -10.1875 3.1875 C-7.65137997 -0.76884725 -4.35140099 -0.11976333 0 0 Z " fill="#CDCDCD" transform="translate(191.1875,87.8125)"/>
<path d="M0 0 C0 0.66 0 1.32 0 2 C1.32 2 2.64 2 4 2 C4 2.66 4 3.32 4 4 C4.99 4 5.98 4 7 4 C7 4.66 7 5.32 7 6 C8.98 6.66 10.96 7.32 13 8 C12.34 8.66 11.68 9.32 11 10 C10.6682747 12.50689829 10.6682747 12.50689829 10.68115234 15.45947266 C10.66128265 16.60050446 10.64141296 17.74153625 10.62094116 18.91714478 C10.60361435 20.77186905 10.60361435 20.77186905 10.5859375 22.6640625 C10.56657135 23.92640717 10.5472052 25.18875183 10.5272522 26.48934937 C10.47750955 29.84634212 10.43627428 33.20322315 10.39910889 36.56036377 C10.35911153 39.98565664 10.30799981 43.41078146 10.2578125 46.8359375 C10.1615994 53.55718381 10.07659418 60.27850305 10 67 C7.35409986 67.02684679 4.70846904 67.04676357 2.0625 67.0625 C1.30775391 67.07087891 0.55300781 67.07925781 -0.22460938 67.08789062 C-2.14994313 67.09652441 -4.07535581 67.05224333 -6 67 C-7 66 -7 66 -7.12025452 63.37413025 C-7.11803391 62.20386795 -7.11581329 61.03360565 -7.11352539 59.82788086 C-7.11367142 59.18399918 -7.11381744 58.54011749 -7.1139679 57.87672424 C-7.11326885 55.73939697 -7.10547691 53.60215587 -7.09765625 51.46484375 C-7.09579204 49.98653715 -7.09436815 48.50822993 -7.09336853 47.02992249 C-7.08954359 43.13201198 -7.07971352 39.23413851 -7.06866455 35.33624268 C-7.05844992 31.36153667 -7.0538708 27.38682471 -7.04882812 23.41210938 C-7.03809122 15.608056 -7.02101509 7.80403318 -7 0 C-4.3333581 -1.33332095 -2.83319697 -0.67102033 0 0 Z M-6 1 C-6 22.45 -6 43.9 -6 66 C-1.05 66 3.9 66 9 66 C9.20373044 58.67197284 9.36865885 51.34550424 9.46630955 44.01524162 C9.51319065 40.61097506 9.5767058 37.2087534 9.67895508 33.80566406 C9.79589429 29.88892545 9.8392003 25.97300026 9.87890625 22.0546875 C9.9485836 20.23093094 9.9485836 20.23093094 10.01966858 18.37033081 C10.13948154 12.13040895 10.13948154 12.13040895 7.14743042 6.92926025 C2.91708143 3.98432985 -1.05156392 2.64947869 -6 1 Z " fill="#878E9E" transform="translate(46,44)"/>
<path d="M0 0 C1.26328125 0.11988281 2.5265625 0.23976562 3.828125 0.36328125 C5.27445313 0.52376953 5.27445313 0.52376953 6.75 0.6875 C6.75 1.3475 6.75 2.0075 6.75 2.6875 C5.43 2.6875 4.11 2.6875 2.75 2.6875 C2.75 3.3475 2.75 4.0075 2.75 4.6875 C3.74 4.6875 4.73 4.6875 5.75 4.6875 C5.75 5.3475 5.75 6.0075 5.75 6.6875 C4.43 6.6875 3.11 6.6875 1.75 6.6875 C1.75 8.0075 1.75 9.3275 1.75 10.6875 C3.4 10.6875 5.05 10.6875 6.75 10.6875 C6.75 11.3475 6.75 12.0075 6.75 12.6875 C4.31183415 12.7684723 1.87635616 12.82796972 -0.5625 12.875 C-1.59793945 12.91270508 -1.59793945 12.91270508 -2.65429688 12.95117188 C-7.74035815 13.02488291 -7.74035815 13.02488291 -10.203125 11.39453125 C-12.00021786 8.464197 -11.66528831 6.00980651 -11.25 2.6875 C-7.87014294 -1.04460022 -4.76454113 -0.48527734 0 0 Z " fill="#DBDBDB" transform="translate(197.25,63.3125)"/>
<path d="M0 0 C4.95 0 9.9 0 15 0 C15 4.62 15 9.24 15 14 C9.78720132 12.26240044 7.93209711 11.31123967 4 8 C2.68861096 7.29114106 1.36222983 6.60543548 0 6 C0 4.02 0 2.04 0 0 Z " fill="#182645" transform="translate(40,7)"/>
<path d="M0 0 C2.31 0 4.62 0 7 0 C7 4.29 7 8.58 7 13 C6.01 13 5.02 13 4 13 C3.67 9.7 3.34 6.4 3 3 C2.34 5.97 1.68 8.94 1 12 C-0.32 12.33 -1.64 12.66 -3 13 C-3 10.69 -3 8.38 -3 6 C-3.66 6 -4.32 6 -5 6 C-5 7.98 -5 9.96 -5 12 C-6.32 12.33 -7.64 12.66 -9 13 C-9.98248524 8.9472484 -10.08159574 5.16138263 -10 1 C-9.34 1 -8.68 1 -8 1 C-8 2.65 -8 4.3 -8 6 C-7.34 6 -6.68 6 -6 6 C-6 4.35 -6 2.7 -6 1 C-4.68 1 -3.36 1 -2 1 C-1.67 1.66 -1.34 2.32 -1 3 C-0.67 2.01 -0.34 1.02 0 0 Z " fill="#363636" transform="translate(205,42)"/>
<path d="M0 0 C0.33 0 0.66 0 1 0 C1 6.27 1 12.54 1 19 C3.64 18.34 6.28 17.68 9 17 C11.72061968 16.79007564 14.263957 16.90228418 17 17 C15.68 17.33 14.36 17.66 13 18 C13 18.66 13 19.32 13 20 C8.05 20.495 8.05 20.495 3 21 C3 21.66 3 22.32 3 23 C2.34 23 1.68 23 1 23 C1 49.07 1 75.14 1 102 C0.67 102 0.34 102 0 102 C0 68.34 0 34.68 0 0 Z " fill="#BFC5CD" transform="translate(136,6)"/>
<path d="M0 0 C1.98 0 3.96 0 6 0 C6.66 1.32 7.32 2.64 8 4 C8.99 4 9.98 4 11 4 C11 5.32 11 6.64 11 8 C11.66 8 12.32 8 13 8 C13 6.68 13 5.36 13 4 C15.64 4 18.28 4 21 4 C20.34 6.64 19.68 9.28 19 12 C18.67 12 18.34 12 18 12 C18 10.02 18 8.04 18 6 C17.01 6.33 16.02 6.66 15 7 C13.78130071 9.50447516 13.78130071 9.50447516 13 12 C12.01 11.67 11.02 11.34 10 11 C9.67 9.35 9.34 7.7 9 6 C8.01 6.66 7.02 7.32 6 8 C4.68 8 3.36 8 2 8 C2 9.32 2 10.64 2 12 C1.34 12 0.68 12 0 12 C0 8.04 0 4.08 0 0 Z " fill="#484848" transform="translate(212,88)"/>
<path d="M0 0 C1.32 0 2.64 0 4 0 C4.66 1.32 5.32 2.64 6 4 C6.66 2.68 7.32 1.36 8 0 C8.99 0 9.98 0 11 0 C11 3.96 11 7.92 11 12 C10.34 12 9.68 12 9 12 C8.67 10.68 8.34 9.36 8 8 C7.67 9.32 7.34 10.64 7 12 C6.01 12 5.02 12 4 12 C3.67 10.68 3.34 9.36 3 8 C2.67 9.65 2.34 11.3 2 13 C1.34 13 0.68 13 0 13 C0 8.71 0 4.42 0 0 Z " fill="#333333" transform="translate(206,63)"/>
<path d="M0 0 C4 1 4 1 6 4 C6.66 2.68 7.32 1.36 8 0 C8.99 0 9.98 0 11 0 C11 4.29 11 8.58 11 13 C10.34 13 9.68 13 9 13 C8.67 11.02 8.34 9.04 8 7 C7.67 8.65 7.34 10.3 7 12 C6.01 12 5.02 12 4 12 C3.67 11.34 3.34 10.68 3 10 C2.67 10.99 2.34 11.98 2 13 C1.34 13 0.68 13 0 13 C0 8.71 0 4.42 0 0 Z " fill="#424242" transform="translate(140,42)"/>
<path d="M0 0 C0.99 0 1.98 0 3 0 C3 3.96 3 7.92 3 12 C2.34 12 1.68 12 1 12 C0.67 10.35 0.34 8.7 0 7 C-0.33 8.65 -0.66 10.3 -1 12 C-1.99 12 -2.98 12 -4 12 C-4.33 11.34 -4.66 10.68 -5 10 C-5.33 10.66 -5.66 11.32 -6 12 C-6.66 12 -7.32 12 -8 12 C-8 8.37 -8 4.74 -8 1 C-6.68 1 -5.36 1 -4 1 C-3.34 2.32 -2.68 3.64 -2 5 C-1.34 3.35 -0.68 1.7 0 0 Z " fill="#404041" transform="translate(148,63)"/>
<path d="M0 0 C4 1 4 1 5.25 3.0625 C5.4975 3.701875 5.745 4.34125 6 5 C6.33 3.68 6.66 2.36 7 1 C7.66 1 8.32 1 9 1 C9 4.96 9 8.92 9 13 C8.01 13 7.02 13 6 13 C5.34 11.35 4.68 9.7 4 8 C3.67 9.65 3.34 11.3 3 13 C2.01 13 1.02 13 0 13 C0 8.71 0 4.42 0 0 Z " fill="#464646" transform="translate(164,42)"/>
<path d="M0 0 C1.32 0.33 2.64 0.66 4 1 C5.25 3.5625 5.25 3.5625 6 6 C6.33 4.35 6.66 2.7 7 1 C7.66 1 8.32 1 9 1 C9 4.96 9 8.92 9 13 C8.01 13 7.02 13 6 13 C5.34 11.35 4.68 9.7 4 8 C3.67 9.65 3.34 11.3 3 13 C2.01 13 1.02 13 0 13 C0 8.71 0 4.42 0 0 Z " fill="#484848" transform="translate(228,63)"/>
<path d="M0 0 C4 1 4 1 5.25 3.0625 C5.4975 3.701875 5.745 4.34125 6 5 C6.33 3.68 6.66 2.36 7 1 C7.66 1 8.32 1 9 1 C9 4.63 9 8.26 9 12 C8.01 12 7.02 12 6 12 C5.34 10.68 4.68 9.36 4 8 C3.67 9.65 3.34 11.3 3 13 C2.01 13 1.02 13 0 13 C0 8.71 0 4.42 0 0 Z " fill="#373737" transform="translate(164,63)"/>
<path d="M0 0 C1.32 0.33 2.64 0.66 4 1 C5.13764351 5.26616316 6 8.56486311 6 13 C5.01 12.67 4.02 12.34 3 12 C3 11.34 3 10.68 3 10 C2.01 10 1.02 10 0 10 C-0.33 10.99 -0.66 11.98 -1 13 C-1.66 13 -2.32 13 -3 13 C-2.88490339 11.58249437 -2.75746342 10.16598831 -2.625 8.75 C-2.55539063 7.96109375 -2.48578125 7.1721875 -2.4140625 6.359375 C-1.98492887 3.914123 -1.21399362 2.15163097 0 0 Z " fill="#393939" transform="translate(178,63)"/>
<path d="M0 0 C1.32 0.33 2.64 0.66 4 1 C5.13764351 5.26616316 6 8.56486311 6 13 C5.01 12.67 4.02 12.34 3 12 C3 11.34 3 10.68 3 10 C2.01 10 1.02 10 0 10 C-0.33 10.99 -0.66 11.98 -1 13 C-1.66 13 -2.32 13 -3 13 C-2.88490339 11.58249437 -2.75746342 10.16598831 -2.625 8.75 C-2.55539063 7.96109375 -2.48578125 7.1721875 -2.4140625 6.359375 C-1.98492887 3.914123 -1.21399362 2.15163097 0 0 Z " fill="#585858" transform="translate(178,42)"/>
<path d="M0 0 C5.61 0 11.22 0 17 0 C17 5.61 17 11.22 17 17 C13.6998249 17 12.7476985 16.47229985 9.98828125 14.8125 C9.23095703 14.36132812 8.47363281 13.91015625 7.69335938 13.4453125 C6.90767578 12.96835937 6.12199219 12.49140625 5.3125 12 C4.51521484 11.52304687 3.71792969 11.04609375 2.89648438 10.5546875 C0.92740169 9.37559607 -1.03782548 8.19053997 -3 7 C-2.34 6.67 -1.68 6.34 -1 6 C-0.67 4.02 -0.34 2.04 0 0 Z M1 1 C1 2.98 1 4.96 1 7 C3.17327147 8.83044555 4.92692815 10.04766991 7.375 11.375 C7.97828125 11.72949219 8.5815625 12.08398438 9.203125 12.44921875 C12.39733833 14.38800302 12.39733833 14.38800302 16 15 C16 10.38 16 5.76 16 1 C11.05 1 6.1 1 1 1 Z " fill="#848B9B" transform="translate(39,6)"/>
<path d="M0 0 C2.31 0 4.62 0 7 0 C7 4.29 7 8.58 7 13 C6.01 13 5.02 13 4 13 C3.67 9.7 3.34 6.4 3 3 C2.34 5.97 1.68 8.94 1 12 C0.67 11.01 0.34 10.02 0 9 C-0.66 9 -1.32 9 -2 9 C-1.51421457 5.87709365 -1.0013988 3.00419641 0 0 Z " fill="#585858" transform="translate(205,42)"/>
<path d="M0 0 C1.98 0 3.96 0 6 0 C7 1 7 1 7.09765625 3.50390625 C7.08605469 4.51324219 7.07445312 5.52257812 7.0625 6.5625 C7.05347656 7.57441406 7.04445312 8.58632812 7.03515625 9.62890625 C7.02355469 10.41136719 7.01195312 11.19382812 7 12 C6.34 12 5.68 12 5 12 C4.67 10.68 4.34 9.36 4 8 C3.34 8 2.68 8 2 8 C2 9.32 2 10.64 2 12 C1.34 12 0.68 12 0 12 C0 8.04 0 4.08 0 0 Z " fill="#1A1A1A" transform="translate(157,88)"/>
<path d="M0 0 C1.32 0.33 2.64 0.66 4 1 C6 8.625 6 8.625 6 12 C5.34 12 4.68 12 4 12 C4 11.34 4 10.68 4 10 C2.68 10 1.36 10 0 10 C-0.33 10.99 -0.66 11.98 -1 13 C-1.66 13 -2.32 13 -3 13 C-2.68991116 11.39536551 -2.37683713 9.79130769 -2.0625 8.1875 C-1.88847656 7.29417969 -1.71445313 6.40085937 -1.53515625 5.48046875 C-1 3 -1 3 0 0 Z " fill="#3B3B3B" transform="translate(156,63)"/>
<path d="M0 0 C1.670625 0.061875 1.670625 0.061875 3.375 0.125 C3.375 0.785 3.375 1.445 3.375 2.125 C1.725 2.455 0.075 2.785 -1.625 3.125 C-1.625 5.105 -1.625 7.085 -1.625 9.125 C-0.635 9.455 0.355 9.785 1.375 10.125 C1.045 8.475 0.715 6.825 0.375 5.125 C1.695 5.125 3.015 5.125 4.375 5.125 C4.375 7.105 4.375 9.085 4.375 11.125 C-1.99926409 12.44796047 -1.99926409 12.44796047 -4.5625 11.125 C-6.18692132 8.06726576 -5.93339752 5.51737275 -5.625 2.125 C-3.625 0.125 -3.625 0.125 0 0 Z " fill="#393939" transform="translate(191.625,63.875)"/>
<path d="M0 0 C1.32 0 2.64 0 4 0 C5.13764351 4.26616316 6 7.56486311 6 12 C5.34 12 4.68 12 4 12 C4 11.01 4 10.02 4 9 C2.68 9 1.36 9 0 9 C-0.33 9.99 -0.66 10.98 -1 12 C-1.66 12 -2.32 12 -3 12 C-2.69106068 10.3743193 -2.3777305 8.74947252 -2.0625 7.125 C-1.88847656 6.22007813 -1.71445313 5.31515625 -1.53515625 4.3828125 C-1 2 -1 2 0 0 Z " fill="#414141" transform="translate(156,43)"/>
<path d="M0 0 C2.31 0 4.62 0 7 0 C7 0.99 7 1.98 7 3 C5.68 3 4.36 3 3 3 C3 3.66 3 4.32 3 5 C4.32 5 5.64 5 7 5 C7 5.66 7 6.32 7 7 C5.68 7 4.36 7 3 7 C3 7.99 3 8.98 3 10 C4.32 10 5.64 10 7 10 C7 10.66 7 11.32 7 12 C4.69 12 2.38 12 0 12 C0 8.04 0 4.08 0 0 Z " fill="#3E3E3E" transform="translate(148,88)"/>
<path d="M0 0 C2.31 0 4.62 0 7 0 C7 0.66 7 1.32 7 2 C5.68 2 4.36 2 3 2 C3 2.66 3 3.32 3 4 C4.32 4 5.64 4 7 4 C7 4.99 7 5.98 7 7 C5.68 7 4.36 7 3 7 C3 7.99 3 8.98 3 10 C4.32 10 5.64 10 7 10 C7 10.66 7 11.32 7 12 C4.69 12 2.38 12 0 12 C0 8.04 0 4.08 0 0 Z " fill="#3A3A3A" transform="translate(219,64)"/>
<path d="M0 0 C1.98 0 3.96 0 6 0 C6 0.66 6 1.32 6 2 C4.68 2 3.36 2 2 2 C2.66 2.53625 3.32 3.0725 4 3.625 C6 6 6 6 6.25 9.25 C6.1675 10.1575 6.085 11.065 6 12 C3.69 12 1.38 12 -1 12 C-1 11.01 -1 10.02 -1 9 C0.32 9 1.64 9 3 9 C3 8.34 3 7.68 3 7 C1.68 6.34 0.36 5.68 -1 5 C-0.67 3.35 -0.34 1.7 0 0 Z " fill="#434343" transform="translate(187,43)"/>
<path d="M0 0 C2.31 0 4.62 0 7 0 C7 0.66 7 1.32 7 2 C5.68 2 4.36 2 3 2 C3 2.66 3 3.32 3 4 C3.99 4 4.98 4 6 4 C6 4.66 6 5.32 6 6 C4.68 6 3.36 6 2 6 C2 7.32 2 8.64 2 10 C3.65 10 5.3 10 7 10 C7 10.66 7 11.32 7 12 C4.69 12 2.38 12 0 12 C0 8.04 0 4.08 0 0 Z " fill="#2D2D2D" transform="translate(197,64)"/>
<path d="M0 0 C1.98 0 3.96 0 6 0 C6 0.66 6 1.32 6 2 C5.01 2 4.02 2 3 2 C3 2.66 3 3.32 3 4 C3.99 4 4.98 4 6 4 C6 4.66 6 5.32 6 6 C5.01 6 4.02 6 3 6 C3 6.99 3 7.98 3 9 C4.32 9 5.64 9 7 9 C7 9.66 7 10.32 7 11 C4.69 11 2.38 11 0 11 C0 7.37 0 3.74 0 0 Z " fill="#2E2E2E" transform="translate(191,89)"/>
<path d="M0 0 C0.99 0 1.98 0 3 0 C3.66 1.65 4.32 3.3 5 5 C5.33 3.35 5.66 1.7 6 0 C6.99 0 7.98 0 9 0 C8.34 3.3 7.68 6.6 7 10 C5.68 10.33 4.36 10.66 3 11 C2.49384702 9.73160474 1.99530901 8.46016898 1.5 7.1875 C1.2215625 6.47980469 0.943125 5.77210937 0.65625 5.04296875 C0 3 0 3 0 0 Z " fill="#303030" transform="translate(166,89)"/>
<path d="M0 0 C5.33313755 0.55918657 9.36835028 2.39748927 14.0625 4.8125 C15.10374023 5.32780273 15.10374023 5.32780273 16.16601562 5.85351562 C20.1580207 7.87416017 23.59796578 10.04891768 27 13 C23.00465792 12.42923685 20.411827 11.09958585 17 9 C14.80869466 8.30420546 14.80869466 8.30420546 13 8 C13 7.34 13 6.68 13 6 C12.43796875 5.86722656 11.8759375 5.73445312 11.296875 5.59765625 C8.90633847 4.97562889 6.58964225 4.22884959 4.25 3.4375 C3.45078125 3.16808594 2.6515625 2.89867187 1.828125 2.62109375 C0.92320313 2.31365234 0.92320313 2.31365234 0 2 C0 1.34 0 0.68 0 0 Z " fill="#2693AB" transform="translate(23,8)"/>
<path d="M0 0 C0 0.66 0 1.32 0 2 C-0.99 2 -1.98 2 -3 2 C-3 2.99 -3 3.98 -3 5 C-1.68 5.33 -0.36 5.66 1 6 C1.042721 7.66611905 1.04063832 9.33382885 1 11 C0 12 0 12 -3.0625 12.0625 C-4.031875 12.041875 -5.00125 12.02125 -6 12 C-6 11.34 -6 10.68 -6 10 C-4.35 10 -2.7 10 -1 10 C-1.845625 9.2575 -2.69125 8.515 -3.5625 7.75 C-6 5 -6 5 -5.9375 2.75 C-4.40787505 -0.1052999 -3.18543192 0 0 0 Z " fill="#2A2A2A" transform="translate(205,88)"/>
<path d="M0 0 C1.66611905 -0.042721 3.33382885 -0.04063832 5 0 C6 1 6 1 6.125 4 C6 7 6 7 5 8 C3.33382885 8.04063832 1.66611905 8.042721 0 8 C0 5.36 0 2.72 0 0 Z " fill="#656565" transform="translate(257,92)"/>
<path d="M0 0 C1.2065625 0.0309375 1.2065625 0.0309375 2.4375 0.0625 C2.4375 0.7225 2.4375 1.3825 2.4375 2.0625 C1.1175 2.0625 -0.2025 2.0625 -1.5625 2.0625 C-0.9025 2.619375 -0.2425 3.17625 0.4375 3.75 C2.4375 6.0625 2.4375 6.0625 2.75 8.75 C2.4375 11.0625 2.4375 11.0625 1.4375 12.0625 C-0.22867115 12.10313832 -1.89638095 12.105221 -3.5625 12.0625 C-3.5625 11.4025 -3.5625 10.7425 -3.5625 10.0625 C-2.2425 10.0625 -0.9225 10.0625 0.4375 10.0625 C-0.2225 9.505625 -0.8825 8.94875 -1.5625 8.375 C-3.5625 6.0625 -3.5625 6.0625 -3.875 3.375 C-3.43648498 0.12998888 -3.3114813 0.08076784 0 0 Z " fill="#252625" transform="translate(143.5625,87.9375)"/>
<path d="M0 0 C0 0.66 0 1.32 0 2 C-1.32 2.33 -2.64 2.66 -4 3 C-4 4.98 -4 6.96 -4 9 C-2.68 9.33 -1.36 9.66 0 10 C0 10.66 0 11.32 0 12 C-2.74086056 12.22223194 -4.43963721 12.34781139 -6.8125 10.875 C-8.55198782 8.12844028 -8.39769128 6.18153026 -8 3 C-5.87141064 -0.36093057 -3.79035926 -0.30732643 0 0 Z " fill="#424242" transform="translate(189,88)"/>
<path d="M0 0 C2.64 0 5.28 0 8 0 C8 0.66 8 1.32 8 2 C7.01 2 6.02 2 5 2 C5 5.3 5 8.6 5 12 C4.01 12 3.02 12 2 12 C2 8.7 2 5.4 2 2 C1.34 2 0.68 2 0 2 C0 1.34 0 0.68 0 0 Z " fill="#373737" transform="translate(239,64)"/>
<path d="M0 0 C0.33 0 0.66 0 1 0 C1 4.29 1 8.58 1 13 C0.34 13 -0.32 13 -1 13 C-1 12.34 -1 11.68 -1 11 C-2.32 11 -3.64 11 -5 11 C-5 10.01 -5 9.02 -5 8 C-3.68 8 -2.36 8 -1 8 C-1 7.01 -1 6.02 -1 5 C-2.32 5 -3.64 5 -5 5 C-5 4.34 -5 3.68 -5 3 C-3.68 3 -2.36 3 -1 3 C-0.67 2.01 -0.34 1.02 0 0 Z " fill="#E5E5E5" transform="translate(227,63)"/>
<path d="M0 0 C2.625 0.375 2.625 0.375 5 1 C5 1.66 5 2.32 5 3 C6.32 3 7.64 3 9 3 C9 3.66 9 4.32 9 5 C9.99 5 10.98 5 12 5 C12 5.66 12 6.32 12 7 C13.98 7.66 15.96 8.32 18 9 C17.01 9.66 16.02 10.32 15 11 C15 10.34 15 9.68 15 9 C14.30519531 8.89816406 13.61039063 8.79632813 12.89453125 8.69140625 C9.50947448 7.88282994 6.77712981 6.53324287 3.6875 4.9375 C2.61886719 4.38964844 1.55023438 3.84179688 0.44921875 3.27734375 C-0.35902344 2.85582031 -1.16726562 2.43429688 -2 2 C-1.34 1.34 -0.68 0.68 0 0 Z " fill="#AEC6D2" transform="translate(41,43)"/>
<path d="M0 0 C0.99 0 1.98 0 3 0 C3 3.3 3 6.6 3 10 C4.32 10 5.64 10 7 10 C7 10.66 7 11.32 7 12 C4.69 12 2.38 12 0 12 C0 8.04 0 4.08 0 0 Z " fill="#404040" transform="translate(242,88)"/>
<path d="M0 0 C4.46946913 2.53672572 7.15384998 4.73077497 10 9 C10.721875 9.99 11.44375 10.98 12.1875 12 C13.0846875 13.485 13.0846875 13.485 14 15 C13.67 15.99 13.34 16.98 13 18 C12.48050781 17.26394531 11.96101563 16.52789062 11.42578125 15.76953125 C7.08278002 9.54412419 7.08278002 9.54412419 2 3.9375 C1.34 3.298125 0.68 2.65875 0 2 C0 1.34 0 0.68 0 0 Z " fill="#29354C" transform="translate(68,59)"/>
<path d="M0 0 C7.5985115 2.11761796 13.50161164 5.56652009 20 10 C19.34 10.66 18.68 11.32 18 12 C17.11957031 11.45730469 16.23914063 10.91460937 15.33203125 10.35546875 C14.15886347 9.6327974 12.98568586 8.91014199 11.8125 8.1875 C11.23435547 7.83107422 10.65621094 7.47464844 10.06054688 7.10742188 C7.41321358 5.47714318 4.76288562 3.86229004 2.07421875 2.30078125 C1.38972656 1.87152344 0.70523438 1.44226563 0 1 C0 0.67 0 0.34 0 0 Z " fill="#9FC8D8" transform="translate(36,12)"/>
<path d="M0 0 C1.32 0.33 2.64 0.66 4 1 C4 2.98 4 4.96 4 7 C3.67 7 3.34 7 3 7 C2.67 8.98 2.34 10.96 2 13 C1.34 13 0.68 13 0 13 C0 8.71 0 4.42 0 0 Z " fill="#2F3030" transform="translate(140,42)"/>
<path d="M0 0 C2.97 0 5.94 0 9 0 C8.01 0.495 8.01 0.495 7 1 C6.53248212 3.35599235 6.53248212 3.35599235 6.375 6.0625 C6.30023438 6.98160156 6.22546875 7.90070312 6.1484375 8.84765625 C6.09945312 9.55792969 6.05046875 10.26820312 6 11 C5.731875 10.38125 5.46375 9.7625 5.1875 9.125 C4.04443152 6.7004767 4.04443152 6.7004767 1 5 C1 4.34 1 3.68 1 3 C2.32 3 3.64 3 5 3 C5 2.34 5 1.68 5 1 C3.35 1 1.7 1 0 1 C0 0.67 0 0.34 0 0 Z " fill="#C3C3C3" transform="translate(188,42)"/>
<path d="M0 0 C0.99 0 1.98 0 3 0 C3 3.96 3 7.92 3 12 C2.01 12 1.02 12 0 12 C0 8.04 0 4.08 0 0 Z " fill="#494949" transform="translate(177,88)"/>
<path d="M0 0 C1.98 0 3.96 0 6 0 C6 1.98 6 3.96 6 6 C4.02 6 2.04 6 0 6 C0 4.02 0 2.04 0 0 Z " fill="#F4F4F4" transform="translate(184,91)"/>
<path d="M0 0 C0.33 0 0.66 0 1 0 C1 2.97 1 5.94 1 9 C0.34 9 -0.32 9 -1 9 C-1 8.34 -1 7.68 -1 7 C-2.65 7 -4.3 7 -6 7 C-6 5.68 -6 4.36 -6 3 C-5.195625 2.87625 -4.39125 2.7525 -3.5625 2.625 C-2.716875 2.41875 -1.87125 2.2125 -1 2 C-0.67 1.34 -0.34 0.68 0 0 Z " fill="#C0C0C0" transform="translate(205,67)"/>
<path d="M0 0 C0.66 0 1.32 0 2 0 C2 3.96 2 7.92 2 12 C1.01 12 0.02 12 -1 12 C-3.125 7.375 -3.125 7.375 -2 4 C-1.67 4.33 -1.34 4.66 -1 5 C-0.67 3.35 -0.34 1.7 0 0 Z " fill="#232323" transform="translate(235,64)"/>
<path d="M0 0 C2.62386487 3.06117568 3 3.73173127 3 8 C2.01 7.67 1.02 7.34 0 7 C0 6.34 0 5.68 0 5 C-0.99 5 -1.98 5 -3 5 C-3.33 5.99 -3.66 6.98 -4 8 C-4.66 8 -5.32 8 -6 8 C-5.67 6.35 -5.34 4.7 -5 3 C-3.35 3 -1.7 3 0 3 C0 2.01 0 1.02 0 0 Z " fill="#2F2F2F" transform="translate(181,68)"/>
<path d="M0 0 C0.99 0 1.98 0 3 0 C3 3.96 3 7.92 3 12 C2.34 12 1.68 12 1 12 C0.67 10.02 0.34 8.04 0 6 C-0.33 6 -0.66 6 -1 6 C-1.042721 4.33388095 -1.04063832 2.66617115 -1 1 C-0.67 0.67 -0.34 0.34 0 0 Z " fill="#2B2B2B" transform="translate(214,63)"/>
<path d="M0 0 C0.66 0 1.32 0 2 0 C2 3.96 2 7.92 2 12 C1.01 12 0.02 12 -1 12 C-1.33 10.02 -1.66 8.04 -2 6 C-1.34 6 -0.68 6 0 6 C0 4.02 0 2.04 0 0 Z " fill="#252525" transform="translate(171,43)"/>
<path d="M0 0 C1.32 0.33 2.64 0.66 4 1 C4.91058531 4.07322544 5.08886184 6.80097361 5 10 C4.34 10 3.68 10 3 10 C2.87625 9.360625 2.7525 8.72125 2.625 8.0625 C2.315625 7.0415625 2.315625 7.0415625 2 6 C1.34 5.67 0.68 5.34 0 5 C0 3.35 0 1.7 0 0 Z " fill="#636363" transform="translate(159,90)"/>
<path d="M0 0 C1.32 0 2.64 0 4 0 C4 1.98 4 3.96 4 6 C3.67 6 3.34 6 3 6 C2.67 7.65 2.34 9.3 2 11 C1.34 11 0.68 11 0 11 C0 7.37 0 3.74 0 0 Z " fill="#222222" transform="translate(140,64)"/>
<path d="M0 0 C1.98 0 3.96 0 6 0 C5.67 1.98 5.34 3.96 5 6 C4.01 6 3.02 6 2 6 C1.67 4.35 1.34 2.7 1 1 C1.33 4.63 1.66 8.26 2 12 C1.34 12 0.68 12 0 12 C0 8.04 0 4.08 0 0 Z " fill="#676767" transform="translate(212,88)"/>
<path d="M0 0 C0.99 0.495 0.99 0.495 2 1 C1.67 2.32 1.34 3.64 1 5 C1.99 5 2.98 5 4 5 C3.67 3.35 3.34 1.7 3 0 C3.99 0 4.98 0 6 0 C6 1.98 6 3.96 6 6 C4.35 6.33 2.7 6.66 1 7 C0.67 7.99 0.34 8.98 0 10 C0 6.7 0 3.4 0 0 Z " fill="#191919" transform="translate(213,89)"/>
<path d="M0 0 C-1.32 0.33 -2.64 0.66 -4 1 C-4 1.66 -4 2.32 -4 3 C-7.63 3.33 -11.26 3.66 -15 4 C-15 3.34 -15 2.68 -15 2 C-9.75614911 0.2520497 -5.52677733 -0.19392201 0 0 Z " fill="#737684" transform="translate(153,23)"/>
<path d="M0 0 C2.475 0.99 2.475 0.99 5 2 C4.34 4.31 3.68 6.62 3 9 C2.01 9 1.02 9 0 9 C-1.125 3.375 -1.125 3.375 0 0 Z " fill="#494949" transform="translate(210,66)"/>
<path d="M0 0 C0.99 0 1.98 0 3 0 C3 4.29 3 8.58 3 13 C2.34 13 1.68 13 1 13 C0.67 8.71 0.34 4.42 0 0 Z " fill="#292929" transform="translate(148,42)"/>
<path d="M0 0 C0.33 0 0.66 0 1 0 C1 3.63 1 7.26 1 11 C0.34 11 -0.32 11 -1 11 C-1 10.34 -1 9.68 -1 9 C-2.32 9 -3.64 9 -5 9 C-5 8.01 -5 7.02 -5 6 C-3.35 6 -1.7 6 0 6 C0 4.02 0 2.04 0 0 Z " fill="#CCCCCC" transform="translate(156,89)"/>
<path d="M0 0 C0.66 0 1.32 0 2 0 C2 1.32 2 2.64 2 4 C2.99 4 3.98 4 5 4 C5.33 3.01 5.66 2.02 6 1 C6 2.32 6 3.64 6 5 C4.68 5 3.36 5 2 5 C1.67 6.32 1.34 7.64 1 9 C0.34 9 -0.32 9 -1 9 C-0.67 6.03 -0.34 3.06 0 0 Z " fill="#2A2A2A" transform="translate(176,46)"/>
<path d="M0 0 C0.99 0 1.98 0 3 0 C3 2.64 3 5.28 3 8 C3.66 8 4.32 8 5 8 C5 9.32 5 10.64 5 12 C4.01 12 3.02 12 2 12 C2 9.36 2 6.72 2 4 C1.34 4 0.68 4 0 4 C0 2.68 0 1.36 0 0 Z " fill="#232323" transform="translate(200,43)"/>
<path d="M0 0 C0.99 0 1.98 0 3 0 C3 3.96 3 7.92 3 12 C2.34 12 1.68 12 1 12 C0.67 8.04 0.34 4.08 0 0 Z " fill="#232323" transform="translate(148,63)"/>
<path d="M0 0 C0.66 0.33 1.32 0.66 2 1 C-1.3 4.3 -4.6 7.6 -8 11 C-8.66 10.67 -9.32 10.34 -10 10 C-8.38405168 7.95880212 -6.7143618 5.95927063 -5 4 C-4.34 4 -3.68 4 -3 4 C-3 3.34 -3 2.68 -3 2 C-2.01 1.34 -1.02 0.68 0 0 Z " fill="#DEE1E7" transform="translate(115,42)"/>
<path d="M0 0 C6.625 -0.25 6.625 -0.25 10 2 C10 2.66 10 3.32 10 4 C10.99 4.33 11.98 4.66 13 5 C11.68 5 10.36 5 9 5 C9 4.34 9 3.68 9 3 C8.071875 2.87625 7.14375 2.7525 6.1875 2.625 C3 2 3 2 0 0 Z " fill="#3588A1" transform="translate(27,37)"/>
<path d="M0 0 C2.02350324 3.03525486 2.32124018 4.19426202 2.625 7.6875 C2.69976562 8.49574219 2.77453125 9.30398437 2.8515625 10.13671875 C2.92503906 11.05904297 2.92503906 11.05904297 3 12 C2.01 11.67 1.02 11.34 0 11 C0 10.34 0 9.68 0 9 C-0.99 8.67 -1.98 8.34 -3 8 C-1.68 8 -0.36 8 1 8 C0.67 5.36 0.34 2.72 0 0 Z " fill="#4B4B4B" transform="translate(181,43)"/>
<path d="M0 0 C1.98 0 3.96 0 6 0 C5.01 0.495 5.01 0.495 4 1 C4 3.31 4 5.62 4 8 C3.34 8 2.68 8 2 8 C2 6.02 2 4.04 2 2 C1.34 2 0.68 2 0 2 C0 1.34 0 0.68 0 0 Z " fill="#3F3F3F" transform="translate(250,92)"/>
<path d="M0 0 C0.66 0.33 1.32 0.66 2 1 C2.59355614 3.64860427 2.74209269 6.29197322 3 9 C2.34 9 1.68 9 1 9 C1 8.01 1 7.02 1 6 C-0.32 5.67 -1.64 5.34 -3 5 C-2.34 4.67 -1.68 4.34 -1 4 C-0.34786708 1.97536745 -0.34786708 1.97536745 0 0 Z " fill="#232323" transform="translate(159,46)"/>
<path d="M0 0 C0.226875 0.61875 0.45375 1.2375 0.6875 1.875 C2.37929835 4.61410209 3.99244161 5.05024472 7 6 C7 6.66 7 7.32 7 8 C4.625 8.125 4.625 8.125 2 8 C0 6 0 6 -0.125 2.875 C-0.08375 1.92625 -0.0425 0.9775 0 0 Z " fill="#1C1C1C" transform="translate(182,92)"/>
<path d="M0 0 C0.66 0.33 1.32 0.66 2 1 C-0.64 3.64 -3.28 6.28 -6 9 C-6 5.06368636 -4.57142871 3.87394974 -2 1 C-1.34 0.67 -0.68 0.34 0 0 Z " fill="#2B344D" transform="translate(101,45)"/>
<path d="M0 0 C2 3 2 3 1.625 5.1875 C1.41875 5.785625 1.2125 6.38375 1 7 C-0.32 7 -1.64 7 -3 7 C-2.67 5.68 -2.34 4.36 -2 3 C-1.34 3 -0.68 3 0 3 C0 2.01 0 1.02 0 0 Z " fill="#787878" transform="translate(181,64)"/>
<path d="M0 0 C0.99 0.33 1.98 0.66 3 1 C2.34 1 1.68 1 1 1 C1.33 2.65 1.66 4.3 2 6 C0.68 6.33 -0.64 6.66 -2 7 C-1.34 4.69 -0.68 2.38 0 0 Z " fill="#C8C8C8" transform="translate(165,88)"/>
</svg>
